<svg width="216" height="155" viewBox="0 0 216 155" fill="none" xmlns="http://www.w3.org/2000/svg">
<path opacity="0.02" d="M137.476 -114.883C140.18 -112.307 142.923 -110.044 145.274 -107.43C150.251 -101.966 150.996 -95.6446 148.645 -88.7375C147.116 -84.2499 146.097 -79.6452 146.959 -74.8454C147.743 -70.4358 150.565 -67.47 154.014 -64.8945C154.876 -64.2701 155.268 -64.8165 155.699 -65.4408C157.227 -67.509 158.05 -69.8894 158.677 -72.3479C160.715 -80.5427 166.006 -85.5377 173.961 -87.84C177.724 -88.9327 181.604 -89.7912 185.444 -90.5716C192.302 -91.9374 198.534 -94.63 204.255 -98.5323C205.47 -99.3908 206.724 -100.171 208.214 -101.147C210.016 -95.8397 211.897 -90.7667 211.78 -85.3035C211.662 -80.1915 209.076 -76.1721 205.392 -72.8552C202.688 -70.3967 200.376 -67.6261 198.494 -64.5043C196.065 -60.4459 196.025 -56.1534 197.475 -51.7828C197.867 -50.6511 198.259 -50.3389 199.239 -51.2365C205.862 -57.285 213.543 -57.5192 221.617 -54.9827C225.3 -53.812 228.906 -52.4462 232.59 -51.2365C239.017 -49.0902 245.64 -48.2317 252.42 -48.9341C255.79 -49.2853 255.869 -49.2073 254.967 -45.9684C254.301 -43.4709 253.556 -40.9734 252.733 -38.515C250.382 -31.6079 245.483 -27.6666 238.312 -26.3788C235.255 -25.8325 232.355 -24.8179 229.533 -23.6472C223.184 -20.9546 220.558 -15.8426 219.892 -9.36481C219.735 -7.95998 220.284 -7.41365 221.617 -7.64779C224.086 -8.07704 226.594 -8.46726 229.063 -9.01359C236.666 -10.7306 243.093 -8.46726 248.619 -3.27721C251.44 -0.623642 254.066 2.18599 256.613 5.11271C261.865 11.2003 268.409 15.4928 275.699 18.7318C277.149 19.3951 277.502 19.8634 276.169 21.1122C274.366 22.7511 272.76 24.6242 271.035 26.3412C265.353 32.1166 258.69 33.8336 250.892 31.1801C247.208 29.9313 243.367 29.5411 239.448 29.6582C235.098 29.8143 231.806 31.9215 229.063 35.0824C228.475 35.7458 228.005 36.4091 229.298 36.7994C240.349 40.2334 243.445 49.2867 244.935 59.1596C246.345 68.408 249.089 77.0711 254.615 84.6806C255.79 86.3196 255.398 86.9439 253.635 87.2561C249.716 87.9975 246.071 89.7145 241.956 89.7145C236.234 89.7536 231.649 87.6073 227.965 83.4709C225.261 80.4271 222.361 77.7345 218.873 75.6273C214.014 72.6615 209.076 73.2859 204.099 75.3151C202.923 75.7834 203.119 76.4858 203.55 77.3833C204.569 79.5686 206.097 81.4027 207.822 83.0026C214.641 89.5194 215.816 97.246 213.387 105.987C211.741 111.88 209.311 117.538 208.331 123.626C207.547 128.347 207.665 133.03 208.096 137.713C208.292 139.859 207.743 140.483 205.509 139.82C202.649 138.962 199.709 138.415 196.848 137.44C190.578 135.215 186.777 130.884 185.287 124.484C184.464 120.855 183.289 117.382 181.564 114.104C179.291 109.733 175.647 107.275 170.865 106.338C169.807 106.104 168.945 106.065 169.259 107.626C171.179 116.289 167.652 122.962 161.421 128.62C159.148 130.689 156.796 132.679 154.406 134.63C148.41 139.469 143.824 145.4 140.454 152.307C140.062 153.166 139.553 153.946 139.004 155C134.771 150.942 130.46 147.273 128.07 141.927C126.189 137.674 126.581 133.342 128.07 129.05C129.402 125.069 130.382 121.05 130.225 116.796C130.069 111.138 126.698 107.392 122.427 104.231C121.486 103.529 121.172 104.27 120.741 104.777C118.703 107.197 117.841 110.163 116.94 113.089C114.863 119.723 110.395 124.055 103.89 126.396C100.088 127.762 96.13 128.581 92.1718 129.167C83.9027 130.415 76.3782 133.381 69.4808 138.142C67.0902 139.781 67.051 139.703 66.2672 136.854C65.4442 133.889 64.6212 130.962 64.1509 127.918C63.2887 122.221 64.8171 117.343 68.8537 113.245C71.5186 110.553 74.3403 108.055 76.5742 104.973C80.1404 100.056 81.0026 94.9046 78.2985 89.0902C75.3201 91.3535 72.4592 93.5388 68.7753 94.3583C62.5049 95.7631 56.6264 94.1632 51.0222 91.7828C41.9301 87.9195 32.6421 85.5781 22.727 86.3195C21.6689 86.3976 20.7675 86.3195 21.1986 84.8367C22.3351 81.0905 23.2757 77.2662 25 73.7151C27.8609 67.9007 32.838 65.091 39.0301 64.1545C42.4004 63.6472 45.614 62.5546 48.71 61.1107C54.1966 58.5742 56.5088 53.8524 57.4102 48.1941C57.6062 46.9453 56.7832 46.9063 56.0386 46.7503C53.8831 46.36 51.7668 46.6722 49.6898 47.2575C40.2058 49.9111 32.4461 47.0234 26.019 39.9602C24.5297 38.3213 23.0013 36.7213 21.6297 35.0043C16.2607 28.2143 9.79428 22.8292 1.91708 19.161C-0.551894 18.0293 -0.512695 17.9123 1.32924 15.9611C3.32793 13.8539 5.40501 11.7857 7.63884 9.91255C12.9687 5.54198 18.8864 4.52737 25.3919 6.7907C29.5853 8.23455 33.8962 9.17113 38.403 8.85895C42.9491 8.54676 46.3194 6.16634 49.1019 2.49818C48.1222 2.06892 47.3384 1.75674 46.5546 1.40554C38.7557 -1.75532 35.3854 -8.15508 33.857 -15.8426C33.0732 -19.94 32.5637 -24.0765 31.7799 -28.1349C30.6434 -34.2224 28.2528 -39.8418 24.9217 -45.0708C24.2554 -46.1245 23.6284 -47.2171 22.8838 -48.5049C28.9974 -50.1048 34.8759 -52.0169 41.1855 -50.6511C45.8883 -49.5975 48.7884 -46.3196 51.8452 -43.0026C56.3521 -38.1247 61.1725 -33.481 68.7361 -34.4956C70.4213 -34.7297 72.7727 -34.6517 73.3214 -36.2126C73.7525 -37.5004 72.0673 -39.0613 71.0092 -40.31C68.1483 -43.666 64.7388 -46.5927 63.1712 -50.9633C61.2116 -56.5046 62.0346 -61.8507 63.5239 -67.2749C64.8171 -71.9967 67.0118 -76.4453 67.874 -81.2841C68.8145 -86.2791 69.0497 -91.235 68.501 -96.308C68.0699 -100.249 68.1875 -100.249 72.0281 -99.4298C74.889 -98.8055 77.7107 -98.103 80.454 -97.0885C86.1365 -94.9422 89.6636 -90.8448 91.1528 -85.0694C92.0934 -81.3232 93.1907 -77.655 95.0327 -74.221C97.3449 -69.9285 100.95 -67.431 105.732 -66.4554C107.299 -66.1432 107.534 -66.6896 107.26 -67.9773C105.3 -76.9916 109.455 -83.6255 115.725 -89.44C119.566 -92.952 123.798 -96.0348 127.364 -99.8201C131.558 -104.308 134.379 -109.654 137.162 -115L137.476 -114.883ZM243.249 81.4026C240.349 75.8614 238.782 70.203 237.724 64.3886C237.097 60.9936 236.548 57.5986 235.647 54.2427C234.275 49.1697 231.375 45.5796 226.045 44.2528C223.654 43.6674 221.499 42.4967 219.344 41.287C217.462 40.2334 217.07 38.7505 218.011 36.9164C219.187 34.6921 220.676 32.6239 222.244 30.6728C226.75 25.0535 232.511 21.6194 239.879 21.4243C244.935 21.3073 249.912 22.2828 254.771 23.7267C257.397 24.5072 260.062 24.5071 262.492 22.8682C263.746 22.0487 263.667 21.5414 262.453 20.7609C257.867 17.8732 253.988 14.2051 250.382 10.2247C247.835 7.41508 245.405 4.5274 242.544 2.02992C239.017 -0.974846 235.137 -2.37968 230.513 -1.05289C226.202 0.195839 221.813 0.273872 217.384 -0.545609C213.465 -1.28705 211.231 -3.78451 211.388 -7.76485C211.584 -12.3305 212.642 -16.7401 214.602 -20.8375C215.895 -23.5692 217.737 -26.1447 220.362 -27.8227C225.653 -31.2177 231.375 -33.481 237.606 -34.6127C239.957 -35.0419 242.113 -36.0175 243.524 -38.1638C245.052 -40.4661 244.974 -40.8173 242.191 -41.0124C237.332 -41.3636 232.707 -42.6514 228.161 -44.2123C224.36 -45.5391 220.637 -47.061 216.718 -47.9585C212.407 -48.9731 208.41 -48.5829 204.961 -45.5001C203.393 -44.0953 201.747 -42.7294 200.062 -41.4417C197.397 -39.3344 194.379 -39.9198 192.655 -42.8465C192.146 -43.744 191.715 -44.6806 191.283 -45.5781C186.424 -55.7241 187.678 -65.0506 194.928 -73.6356C196.927 -75.977 199.082 -78.1623 201.238 -80.3476C202.884 -82.0256 203.628 -84.0548 203.668 -86.3181C203.668 -87.5669 203.55 -88.6985 201.708 -87.6449C197.907 -85.5377 193.752 -84.2499 189.52 -83.1963C185.914 -82.3378 182.27 -81.5963 178.664 -80.7768C172.355 -79.372 167.691 -76.2502 166.28 -69.4212C165.3 -64.7774 162.244 -61.1873 159.265 -57.5972C157.031 -54.9046 154.68 -54.5924 151.78 -56.5436C150.33 -57.4801 148.919 -58.4947 147.587 -59.6264C140.728 -65.4408 137.475 -72.6601 138.769 -81.7524C139.317 -85.6547 140.376 -89.4399 141.434 -93.1862C142.178 -95.8007 141.865 -98.2982 140.297 -100.64C139.749 -101.459 139.317 -101.537 138.769 -100.64C134.575 -94.1227 128.619 -89.2448 122.74 -84.367C116.626 -79.333 113.452 -73.5576 116.43 -65.3628C117.959 -61.1873 115.647 -57.6362 112.041 -57.6362C101.969 -57.6753 92.7205 -60.68 87.5866 -71.3723C85.7446 -75.2356 84.5297 -79.255 83.3932 -83.3524C82.531 -86.4352 80.6891 -88.5815 77.4363 -89.4009C77.1228 -86.7474 76.8485 -84.1718 76.4958 -81.6354C75.5552 -75.3136 73.047 -69.4212 71.3619 -63.2555C69.7551 -57.324 70.7348 -52.3291 75.3984 -48.0366C78.5728 -45.0708 81.1594 -41.5588 82.4919 -37.3052C83.6675 -33.5981 82.2959 -30.2421 78.7688 -28.7202C69.0888 -24.5057 60.0751 -25.2081 51.7668 -32.1542C48.7884 -34.6517 46.241 -37.5394 43.6153 -40.3491C41.8518 -42.2222 39.6571 -43.1197 37.0314 -42.9636C36.0124 -42.9246 35.7381 -42.4953 36.1692 -41.6368C39.6963 -34.3005 40.4801 -26.3008 41.7734 -18.3791C42.518 -13.8134 43.7721 -9.20871 48.1614 -6.67222C50.7871 -5.15032 53.8047 -4.36984 56.5872 -3.12111C59.4089 -1.83335 60.1535 1.09336 58.5467 3.78594C58.1156 4.52738 57.6062 5.2298 57.1359 5.93222C51.5317 13.8929 44.0856 18.0684 34.0921 17.0147C30.2515 16.6245 26.4893 15.766 22.8054 14.5173C19.3567 13.3076 16.1823 13.5417 13.243 16.3513C19.8661 20.3707 24.7649 26.029 29.5853 31.7654C31.0353 33.5215 32.6813 35.1214 34.3273 36.6823C37.776 40.0383 41.8518 40.9748 46.5546 39.8822C51.179 38.7896 55.8818 38.0481 60.5454 39.6871C63.1712 40.6236 64.778 42.6919 64.8955 45.4625C64.9347 46.8673 64.9347 48.3112 64.8955 49.716C64.3469 58.8083 59.9184 65.2471 51.5317 68.9543C47.9262 70.5542 44.164 71.6859 40.245 72.3493C37.6584 72.7786 35.1503 73.52 33.5043 75.8614C32.9948 76.5638 32.1326 77.3833 32.407 78.1247C32.7597 79.0223 34.0137 78.7491 34.9151 78.9052C35.7773 79.0613 36.6395 79.1393 37.5017 79.2564C43.5369 80.2319 49.1803 82.4953 54.8237 84.7977C62.113 87.7634 68.8929 88.2317 74.7714 81.8319C77.1228 79.2954 81.9824 79.7637 83.9419 83.0416C88.1744 90.2218 89.8988 97.6752 85.9014 105.597C83.5108 110.319 80.0621 114.182 76.1431 117.655C73.7525 119.762 72.0281 122.182 72.1457 125.577C72.1849 126.942 72.6551 127.177 73.87 126.591C78.2593 124.406 82.9621 123.001 87.7433 121.987C91.1529 121.284 94.5624 120.699 97.9719 119.996C104.203 118.709 108.553 115.431 110.082 108.914C110.787 105.87 111.963 102.865 114.04 100.485C116.234 97.9874 118.155 94.8266 122.387 95.4119C124.974 95.8021 126.777 97.4021 128.658 98.885C134.771 103.763 138.612 109.889 138.455 118.006C138.338 123.118 137.084 128.035 135.516 132.874C134.693 135.41 134.811 137.947 136.3 140.288C136.888 141.186 137.397 141.459 138.181 140.288C142.453 133.576 148.684 128.816 154.719 123.821C157.776 121.284 160.519 118.357 161.538 114.26C162.322 111.177 161.029 108.289 160.48 105.402C159.735 101.539 161.421 97.9484 164.791 97.8703C174.197 97.7533 182.426 100.29 187.835 108.719C190.656 113.167 192.224 118.084 193.439 123.157C194.223 126.435 196.065 128.816 199.592 129.713C200.023 126.396 200.258 123.118 200.924 119.879C202.139 114.026 204.608 108.524 206.019 102.709C207.351 97.285 206.411 92.5632 202.217 88.739C198.651 85.5 196.809 81.2466 195.359 76.7979C194.419 73.9493 195.477 70.8274 198.103 69.4226C206.45 65.013 214.954 63.7253 223.537 68.9153C227.26 71.1786 230.552 73.9883 233.413 77.2662C235.96 80.1929 238.782 82.3392 243.328 81.4026H243.249Z" fill="#271907"/>
</svg>
