<svg width="48" height="48" viewBox="0 0 48 48" fill="none" xmlns="http://www.w3.org/2000/svg">
<g clip-path="url(#clip0_65_23)">
<path d="M17 22C17 17.588 13.412 14 9 14C4.588 14 1 17.588 1 22C1 24.51 2.186 26.726 4 28.194V37.694C4 38.94 5.582 39.474 6.338 38.484L9 34.998L11.662 38.484C12.418 39.474 14 38.94 14 37.694V28.194C15.814 26.726 17 24.51 17 22ZM48 20.97V38C48 43.514 43.514 48 38 48H18C13.794 48 10.202 45.382 8.728 41.698C8.814 41.624 8.918 41.578 9 41.498C9.998 42.47 11.328 43 12.696 43C13.264 43 13.838 42.91 14.398 42.72C16.454 42.022 17.852 40.148 17.976 38.002H36C37.104 38.002 38 37.108 38 36.002C38 34.896 37.104 34.002 36 34.002H18V30.002H36C37.104 30.002 38 29.108 38 28.002C38 26.896 37.104 26.002 36 26.002H20.284C20.742 24.732 21 23.386 21 22.002C21 15.384 15.618 10.002 9 10.002C8.662 10.002 8.33 10.026 8 10.052V10.002C8 4.486 12.486 0 18 0H27.03C27.356 0 27.678 0.026 28 0.048V14C28 17.308 30.692 20 34 20H47.952C47.974 20.322 48 20.644 48 20.97ZM32 14V0.92C33.826 1.612 35.506 2.678 36.93 4.1L43.898 11.072C45.322 12.494 46.388 14.174 47.08 16H34C32.896 16 32 15.102 32 14Z" fill="url(#paint0_linear_65_23)"/>
</g>
<defs>
<linearGradient id="paint0_linear_65_23" x1="24.5" y1="0" x2="24.5" y2="48" gradientUnits="userSpaceOnUse">
<stop stop-color="#FFB75F"/>
<stop offset="1" stop-color="#DB9137"/>
</linearGradient>
<clipPath id="clip0_65_23">
<rect width="48" height="48" fill="white"/>
</clipPath>
</defs>
</svg>
