<svg width="49" height="48" viewBox="0 0 49 48" fill="none" xmlns="http://www.w3.org/2000/svg">
<path d="M17.0311 17.8067C17.7599 14.3239 20.3023 11.7706 23.831 10.9763C24.6384 10.7995 25.4873 10.9894 26.1354 11.5087C26.7814 12.0259 27.1589 12.8094 27.1589 13.6386V27.8211C27.1589 29.3269 25.9369 30.549 24.4311 30.549C22.9253 30.549 21.7033 29.3269 21.7033 27.8211V20.2203C21.0726 20.899 20.1102 21.2373 19.1435 21.0365C17.6683 20.7266 16.7234 19.282 17.0311 17.8089V17.8067ZM42.0485 29.4578C43.5106 29.1567 45.0055 28.598 45.8151 27.5353C48.5975 23.8734 48.0322 19.0965 47.814 18.3698C47.4649 17.1979 46.4043 16.3905 45.1735 16.3665C45.0229 16.3665 44.7087 16.4057 44.3333 16.4668C44.9749 15.7882 45.4725 15.0287 45.6405 14.1995C46.5352 9.74984 44.0191 5.85887 43.4888 5.27621C42.6639 4.37712 41.3676 4.11525 40.2634 4.61717C40.2634 4.61717 40.2634 4.61717 40.2525 4.62153C39.947 4.76556 39.0435 5.37005 38.055 6.34333C38.1597 5.50753 38.1139 4.66518 37.7429 3.96685C36.2284 1.12118 33.051 0.106433 32.488 0.0235067C31.4056 -0.122705 30.3734 0.422861 29.8998 1.3896C29.6467 1.91334 28.7105 5.11472 30.2272 7.96694C31.1066 9.59708 33.4657 10.2125 35.2617 10.4831C35.0762 10.9697 34.919 11.4826 34.8121 12.0238C34.3429 14.3566 36.4815 17.2088 37.7974 18.6993C37.9764 18.9022 38.199 19.0397 38.4281 19.1619C37.8804 19.6202 37.3501 20.1265 36.8831 20.7419C35.4166 22.6688 36.1149 26.2412 36.6583 28.2009C36.7478 28.5217 36.9224 28.7901 37.1319 29.0279C34.3669 29.244 32.2021 32.7923 31.3183 34.9484C28.7454 34.7389 25.4742 36.5065 24.0099 37.3969C22.5478 36.5044 19.2744 34.7389 16.7015 34.9484C15.8177 32.7923 13.6507 29.2374 10.8836 29.0279C11.0909 28.7901 11.2677 28.5217 11.3572 28.2009C11.9027 26.2434 12.5989 22.671 11.1324 20.7419C10.6654 20.1265 10.1351 19.6224 9.58954 19.1641C9.81868 19.0441 10.0413 18.9044 10.2224 18.6993C11.5383 17.2066 13.6769 14.3566 13.2077 12.0238C13.0986 11.4826 12.9437 10.9697 12.7582 10.4831C14.5542 10.2147 16.9154 9.59927 17.7927 7.96694C19.3093 5.11472 18.3731 1.91334 18.12 1.3896C17.6464 0.422861 16.6142 -0.122705 15.5318 0.0235067C14.9688 0.106433 11.7914 1.12118 10.277 3.96685C9.90597 4.66518 9.86232 5.50753 9.96489 6.34333C8.97633 5.37223 8.07505 4.76556 7.76735 4.62153C7.75426 4.61717 7.75862 4.61717 7.75644 4.61717C6.65004 4.11525 5.35595 4.37712 4.53106 5.27621C4.00077 5.85887 1.48462 9.74984 2.37935 14.1995C2.5452 15.0287 3.04494 15.7882 3.68653 16.4668C3.30681 16.4036 2.99257 16.3665 2.83981 16.3665C1.61119 16.3905 0.548434 17.1979 0.199272 18.3698C-0.0211363 19.0965 -0.584159 23.8756 2.19822 27.5353C3.00784 28.6002 4.50487 29.1589 5.96699 29.4578C3.85019 30.1103 2.31607 31.1382 1.98873 31.4481C1.08745 32.2991 0.843039 33.6216 1.37551 34.728C1.65484 35.4023 4.79948 39.6665 9.38004 40.3255C8.44604 41.6894 7.92229 42.8635 7.82627 43.2345C7.49457 44.4914 8.0074 45.803 9.10944 46.5035C9.64192 46.8396 12.3785 47.9983 15.7042 47.9983C17.1467 47.9983 18.7005 47.7801 20.2302 47.1844C21.9346 46.5188 23.1828 44.4893 24.0077 42.6278C24.8326 44.4893 26.0809 46.5188 27.7852 47.1844C29.315 47.7823 30.8688 47.9983 32.3112 47.9983C35.637 47.9983 38.3736 46.8396 38.906 46.5035C40.0081 45.803 40.5209 44.4914 40.1892 43.2345C40.091 42.8635 39.5694 41.6894 38.6354 40.3255C43.2182 39.6621 46.3585 35.4023 46.64 34.728C47.1724 33.6216 46.928 32.2991 46.0268 31.4481C45.6994 31.1404 44.1675 30.1103 42.0485 29.4578Z" fill="url(#paint0_linear_65_35)"/>
<defs>
<linearGradient id="paint0_linear_65_35" x1="24.0062" y1="0" x2="24.0062" y2="47.9983" gradientUnits="userSpaceOnUse">
<stop stop-color="#FFB75F"/>
<stop offset="1" stop-color="#DB9137"/>
</linearGradient>
</defs>
</svg>
