<svg width="48" height="48" viewBox="0 0 48 48" fill="none" xmlns="http://www.w3.org/2000/svg">
<path d="M46.636 14.24C45.796 13.84 44.822 13.948 44.01 14.602L38 22V16.406C38.002 15.474 37.482 14.642 36.64 14.238C35.8 13.838 34.826 13.946 34.014 14.6L28.002 22.002V16.408C28.004 15.476 27.484 14.644 26.642 14.24C25.802 13.84 24.828 13.948 24.016 14.602L16.57 22.024L12.672 3.154C12.278 1.326 10.632 0 8.764 0H4C1.79 0 0 1.79 0 4V38C0 43.522 4.478 48 10 48H38C43.522 48 48 43.522 48 38V16.408C48 15.476 47.478 14.644 46.636 14.24ZM20 36C20 37.104 19.104 38 18 38H16C14.896 38 14 37.104 14 36V34C14 32.896 14.896 32 16 32H18C19.104 32 20 32.896 20 34V36ZM30 36C30 37.104 29.104 38 28 38H26C24.896 38 24 37.104 24 36V34C24 32.896 24.896 32 26 32H28C29.104 32 30 32.896 30 34V36ZM40 36C40 37.104 39.104 38 38 38H36C34.896 38 34 37.104 34 36V34C34 32.896 34.896 32 36 32H38C39.104 32 40 32.896 40 34V36Z" fill="url(#paint0_linear_65_19)"/>
<defs>
<linearGradient id="paint0_linear_65_19" x1="24" y1="0" x2="24" y2="48" gradientUnits="userSpaceOnUse">
<stop stop-color="#FFB75F"/>
<stop offset="1" stop-color="#DB9137"/>
</linearGradient>
</defs>
</svg>
