<svg width="48" height="48" viewBox="0 0 48 48" fill="none" xmlns="http://www.w3.org/2000/svg">
<path d="M43.0299 4.9461C39.3319 1.2561 34.4419 1.2941 31.8479 3.4601C29.6759 5.2761 27.1499 7.6241 24.3419 10.4341C22.9419 11.8321 21.6339 13.1881 20.4359 14.4641C16.2179 13.4701 12.0139 15.1381 7.62192 19.5321C0.379924 26.7761 0.265924 34.1021 6.97192 41.0281C14.7039 49.0141 22.6899 46.2341 28.4599 40.3781C32.8079 35.9641 34.5019 31.7921 33.5139 27.5681C34.0219 27.0881 34.5419 26.5921 35.0759 26.0781C35.5179 25.6521 35.7359 25.0461 35.6779 24.4361C35.5919 23.5401 35.1459 22.1081 35.0919 21.8501C35.4799 21.8401 36.2299 21.9121 37.1499 22.0501C38.0019 22.1781 38.8839 22.3081 39.6299 21.5281C40.4179 20.7101 40.2139 19.8181 39.9799 18.7861C39.6359 17.2741 39.4679 16.2021 39.4759 15.5801C39.8639 15.6641 40.3959 15.8381 40.7599 15.9561C41.4139 16.1701 42.0799 16.3801 42.7079 16.4961C43.4719 16.6361 44.2619 16.3021 44.7159 15.6721C46.5419 13.1381 46.7939 8.6981 43.0299 4.9441V4.9461ZM17.3939 33.6301C15.7219 33.6301 14.3659 32.2741 14.3659 30.6021C14.3659 28.9301 15.7219 27.5741 17.3939 27.5741C19.0659 27.5741 20.4219 28.9301 20.4219 30.6021C20.4219 32.2741 19.0659 33.6301 17.3939 33.6301Z" fill="url(#paint0_linear_65_29)"/>
<defs>
<linearGradient id="paint0_linear_65_29" x1="24.0334" y1="1.97314" x2="24.0334" y2="45.9718" gradientUnits="userSpaceOnUse">
<stop stop-color="#FFB75F"/>
<stop offset="1" stop-color="#DB9137"/>
</linearGradient>
</defs>
</svg>
