<svg width="48" height="48" viewBox="0 0 48 48" fill="none" xmlns="http://www.w3.org/2000/svg">
<path d="M24 0C37.254 0 48 10.746 48 24C48 37.254 37.254 48 24 48C10.746 48 0 37.254 0 24C0 10.746 10.746 0 24 0ZM24.1787 13C18.1167 13 13.0001 17.7113 13 23.9736C13 26.5956 13.4837 28.4054 13.9092 30.0303C14.2664 31.3492 14.581 32.5576 14.5811 33.9873C14.7334 35.8919 18.2269 34.779 19.3301 33.3545C21.074 34.6207 22.0774 34.9375 24.2363 34.9375C30.2045 34.9055 35.0202 30.0263 35 24.0322C35 17.9439 30.246 13.0001 24.1787 13ZM24.3252 18.4131V18.418C27.3846 18.594 29.7406 21.1991 29.6211 24.2744C29.4157 27.3433 26.8012 29.6829 23.7422 29.5352C22.7848 29.458 21.8645 29.1283 21.0742 28.5801C20.5962 29.0602 19.8291 29.6822 19.5244 29.6084C18.8888 29.4396 18.1432 26.1946 18.5635 23.5303C19.0732 20.3124 21.3733 18.2603 24.3252 18.4131Z" fill="white"/>
</svg>
