<svg width="20" height="20" viewBox="0 0 20 20" fill="none" xmlns="http://www.w3.org/2000/svg">
<path d="M18.2501 9.25019C18.0512 9.25019 17.8605 9.17119 17.7199 9.03056C17.5792 8.88993 17.5002 8.6992 17.5002 8.50032C17.4987 6.90976 16.8661 5.38481 15.7414 4.26012C14.6167 3.13542 13.0918 2.50287 11.5012 2.50129C11.3023 2.50129 11.1116 2.42228 10.971 2.28165C10.8303 2.14102 10.7513 1.95029 10.7513 1.75141C10.7513 1.55253 10.8303 1.36179 10.971 1.22116C11.1116 1.08053 11.3023 1.00153 11.5012 1.00153C13.4893 1.00371 15.3954 1.79446 16.8012 3.20028C18.2071 4.60611 18.9978 6.51218 19 8.50032C19 8.6992 18.921 8.88993 18.7804 9.03056C18.6397 9.17119 18.449 9.25019 18.2501 9.25019ZM16.0005 8.50032C16.0005 7.30703 15.5265 6.16263 14.6827 5.31885C13.8389 4.47507 12.6945 4.00104 11.5012 4.00104C11.3023 4.00104 11.1116 4.08005 10.971 4.22068C10.8303 4.36131 10.7513 4.55204 10.7513 4.75092C10.7513 4.9498 10.8303 5.14054 10.971 5.28117C11.1116 5.4218 11.3023 5.5008 11.5012 5.5008C12.2967 5.5008 13.0597 5.81682 13.6222 6.37934C14.1847 6.94186 14.5007 7.70479 14.5007 8.50032C14.5007 8.6992 14.5797 8.88993 14.7204 9.03056C14.861 9.17119 15.0517 9.25019 15.2506 9.25019C15.4495 9.25019 15.6402 9.17119 15.7808 9.03056C15.9215 8.88993 16.0005 8.6992 16.0005 8.50032ZM17.6375 17.6218L18.3199 16.8352C18.7542 16.3995 18.9981 15.8093 18.9981 15.1941C18.9981 14.5789 18.7542 13.9887 18.3199 13.553C18.2966 13.5298 16.4924 12.1417 16.4924 12.1417C16.0594 11.7295 15.4842 11.5 14.8864 11.5009C14.2886 11.5017 13.714 11.7328 13.2822 12.1462L11.8529 13.3505C10.6862 12.8677 9.62643 12.1591 8.73437 11.2655C7.84232 10.3719 7.13558 9.31089 6.65475 8.14337L7.85455 6.7186C8.26827 6.2868 8.49967 5.71217 8.50065 5.11417C8.50163 4.51616 8.27211 3.94077 7.8598 3.50762C7.8598 3.50762 6.47028 1.70567 6.44703 1.68242C6.01919 1.2518 5.4391 1.0068 4.83211 1.00034C4.22512 0.993886 3.63996 1.2265 3.20306 1.64792L2.34069 2.3978C-2.75398 8.30835 8.21674 19.1943 14.3223 18.9986C14.9388 19.0022 15.5498 18.8822 16.1192 18.6457C16.6886 18.4093 17.2048 18.0611 17.6375 17.6218Z" fill="#5E513F"/>
</svg>
