<svg width="60" height="60" viewBox="0 0 60 60" fill="none" xmlns="http://www.w3.org/2000/svg">
<path d="M58.8997 30C58.8996 14.0391 45.9609 1.10033 30 1.10033C14.0392 1.1004 1.1004 14.0392 1.10033 30C1.10033 45.9609 14.0391 58.8996 30 58.8997V60C13.4314 59.9999 0 46.5686 0 30C7.82615e-05 13.4315 13.4315 7.82663e-05 30 0C46.5686 0 59.9999 13.4314 60 30C60 46.5686 46.5686 60 30 60V58.8997C45.9609 58.8997 58.8997 45.9609 58.8997 30Z" fill="white"/>
<path d="M30 1.10033C45.9609 1.10033 58.8996 14.0391 58.8997 30C58.8997 45.9609 45.9609 58.8997 30 58.8997C14.0391 58.8996 1.10033 45.9609 1.10033 30C1.1004 14.0392 14.0392 1.1004 30 1.10033Z" fill="url(#paint0_linear_206_2)"/>
<path d="M30.092 11.625C30.4621 11.9767 30.8376 12.2858 31.1594 12.6429C31.8406 13.389 31.9425 14.2524 31.6207 15.1957C31.4115 15.8086 31.272 16.4375 31.3901 17.093C31.4973 17.6952 31.8835 18.1003 32.3556 18.452C32.4736 18.5373 32.5272 18.4627 32.5862 18.3774C32.7954 18.0949 32.9081 17.7698 32.9939 17.4341C33.2728 16.3149 33.997 15.6327 35.0859 15.3183C35.6008 15.1691 36.1319 15.0518 36.6575 14.9452C37.5962 14.7587 38.4491 14.391 39.2323 13.858C39.3986 13.7408 39.5702 13.6342 39.774 13.501C40.0208 14.2258 40.2783 14.9186 40.2622 15.6647C40.2461 16.3629 39.892 16.9118 39.3878 17.3648C39.0177 17.7005 38.7012 18.0789 38.4438 18.5053C38.1112 19.0595 38.1058 19.6458 38.3043 20.2427C38.3579 20.3972 38.4116 20.4399 38.5457 20.3173C39.4522 19.4912 40.5035 19.4593 41.6085 19.8057C42.1128 19.9656 42.6062 20.1521 43.1105 20.3173C43.9902 20.6104 44.8967 20.7277 45.8247 20.6317C46.286 20.5838 46.2967 20.5944 46.1733 21.0368C46.0821 21.3779 45.9802 21.7189 45.8676 22.0547C45.5457 22.998 44.8752 23.5363 43.8936 23.7121C43.4752 23.7868 43.0783 23.9253 42.6921 24.0852C41.8231 24.4529 41.4637 25.1511 41.3725 26.0358C41.3511 26.2276 41.4262 26.3022 41.6085 26.2703C41.9465 26.2116 42.2898 26.1584 42.6277 26.0837C43.6683 25.8492 44.548 26.1584 45.3044 26.8672C45.6906 27.2296 46.05 27.6133 46.3986 28.013C47.1174 28.8444 48.0132 29.4306 49.0109 29.873C49.2094 29.9636 49.2576 30.0275 49.0753 30.1981C48.8285 30.4219 48.6086 30.6777 48.3726 30.9122C47.5948 31.701 46.6829 31.9355 45.6155 31.5731C45.1112 31.4025 44.5856 31.3492 44.0492 31.3652C43.4538 31.3865 43.0032 31.6743 42.6277 32.106C42.5472 32.1966 42.4829 32.2872 42.6599 32.3405C44.1725 32.8095 44.5963 34.0459 44.8001 35.3943C44.9932 36.6573 45.3687 37.8405 46.125 38.8797C46.286 39.1035 46.2323 39.1888 45.9909 39.2314C45.4545 39.3327 44.9557 39.5672 44.3925 39.5672C43.6093 39.5725 42.9817 39.2794 42.4775 38.7145C42.1074 38.2988 41.7105 37.9311 41.2331 37.6433C40.5679 37.2382 39.892 37.3235 39.2108 37.6006C39.0499 37.6646 39.0767 37.7605 39.1357 37.8831C39.2752 38.1816 39.4844 38.432 39.7204 38.6505C40.6537 39.5406 40.8147 40.5958 40.4821 41.7896C40.2568 42.5943 39.9242 43.3671 39.7901 44.1985C39.6828 44.8433 39.6989 45.4829 39.7579 46.1224C39.7848 46.4155 39.7097 46.5008 39.4039 46.4102C39.0123 46.2929 38.61 46.2183 38.2185 46.0851C37.3602 45.7813 36.8399 45.1898 36.6361 44.3157C36.5234 43.8201 36.3625 43.3458 36.1265 42.8981C35.8154 42.3012 35.3165 41.9654 34.6621 41.8375C34.5173 41.8056 34.3993 41.8002 34.4422 42.0134C34.705 43.1965 34.2223 44.1079 33.3694 44.8806C33.0583 45.1631 32.7364 45.4349 32.4092 45.7014C31.5885 46.3622 30.9609 47.1723 30.4996 48.1156C30.446 48.2329 30.3762 48.3395 30.3012 48.4833C29.7218 47.9291 29.1318 47.4281 28.8046 46.698C28.5471 46.1171 28.6008 45.5255 28.8046 44.9393C28.987 44.3957 29.1211 43.8467 29.0996 43.2658C29.0782 42.4931 28.6168 41.9814 28.0322 41.5498C27.9034 41.4538 27.8605 41.5551 27.8015 41.6244C27.5226 41.9548 27.4046 42.3598 27.2812 42.7595C26.9969 43.6655 26.3854 44.2571 25.495 44.5769C24.9747 44.7634 24.4329 44.8753 23.8911 44.9553C22.7593 45.1258 21.7294 45.5308 20.7854 46.181C20.4582 46.4049 20.4528 46.3942 20.3455 46.0052C20.2329 45.6001 20.1202 45.2004 20.0559 44.7847C19.9378 44.0066 20.147 43.3404 20.6995 42.7809C21.0643 42.4131 21.4505 42.072 21.7563 41.651C22.2444 40.9795 22.3624 40.276 21.9923 39.4819C21.5846 39.791 21.193 40.0895 20.6888 40.2014C19.8306 40.3933 19.026 40.1748 18.2589 39.8497C17.0144 39.3221 15.7432 39.0023 14.3861 39.1035C14.2412 39.1142 14.1179 39.1035 14.1769 38.901C14.3324 38.3894 14.4612 37.8671 14.6972 37.3821C15.0888 36.5881 15.77 36.2043 16.6175 36.0764C17.0788 36.0071 17.5187 35.8579 17.9424 35.6607C18.6934 35.3143 19.0099 34.6695 19.1332 33.8967C19.1601 33.7261 19.0474 33.7208 18.9455 33.6995C18.6505 33.6462 18.3608 33.6888 18.0765 33.7688C16.7784 34.1312 15.7163 33.7368 14.8366 32.7722C14.6328 32.5483 14.4236 32.3298 14.2359 32.0953C13.501 31.168 12.6159 30.4326 11.5378 29.9316C11.1998 29.777 11.2052 29.7611 11.4573 29.4946C11.7309 29.2068 12.0152 28.9243 12.3209 28.6685C13.0504 28.0716 13.8604 27.9331 14.7508 28.2422C15.3248 28.4393 15.9148 28.5673 16.5317 28.5246C17.1539 28.482 17.6152 28.1569 17.9961 27.6559C17.862 27.5973 17.7547 27.5547 17.6474 27.5067C16.58 27.075 16.1187 26.201 15.9095 25.1511C15.8022 24.5915 15.7324 24.0266 15.6252 23.4723C15.4696 22.6409 15.1424 21.8735 14.6865 21.1593C14.5953 21.0155 14.5094 20.8662 14.4075 20.6904C15.2443 20.4718 16.0489 20.2107 16.9125 20.3972C17.5562 20.5411 17.9531 20.9888 18.3715 21.4418C18.9884 22.108 19.6482 22.7422 20.6834 22.6036C20.9141 22.5716 21.2359 22.5823 21.311 22.3691C21.37 22.1933 21.1394 21.9801 20.9946 21.8095C20.603 21.3512 20.1363 20.9515 19.9217 20.3546C19.6535 19.5978 19.7662 18.8677 19.97 18.1269C20.147 17.482 20.4474 16.8745 20.5654 16.2136C20.6942 15.5315 20.7264 14.8546 20.6513 14.1618C20.5923 13.6235 20.6083 13.6235 21.134 13.7354C21.5256 13.8207 21.9118 13.9166 22.2873 14.0552C23.0651 14.3483 23.5478 14.9079 23.7517 15.6967C23.8804 16.2083 24.0306 16.7093 24.2827 17.1783C24.5992 17.7645 25.0927 18.1056 25.7471 18.2388C25.9617 18.2815 25.9938 18.2068 25.9563 18.031C25.6881 16.7999 26.2567 15.8939 27.1149 15.0998C27.6406 14.6201 28.2199 14.1991 28.708 13.6822C29.282 13.0693 29.6682 12.3391 30.049 11.609L30.092 11.625ZM44.5695 38.432C44.1725 37.6753 43.958 36.9025 43.8131 36.1084C43.7273 35.6447 43.6522 35.1811 43.5289 34.7228C43.3411 34.0299 42.9442 33.5396 42.2147 33.3584C41.8875 33.2785 41.5924 33.1186 41.2974 32.9534C41.0399 32.8095 40.9863 32.607 41.115 32.3565C41.276 32.0527 41.4798 31.7702 41.6944 31.5038C42.3112 30.7363 43.0997 30.2673 44.1082 30.2407C44.8001 30.2247 45.4814 30.3579 46.1465 30.5551C46.5059 30.6617 46.8707 30.6617 47.2032 30.4379C47.3749 30.326 47.3641 30.2567 47.1979 30.1501C46.5703 29.7557 46.0392 29.2548 45.5457 28.7112C45.1971 28.3274 44.8645 27.9331 44.4729 27.592C43.9902 27.1816 43.4591 26.9897 42.8262 27.1709C42.2361 27.3415 41.6354 27.3521 41.0292 27.2402C40.4928 27.139 40.1871 26.7979 40.2085 26.2543C40.2353 25.6307 40.3802 25.0285 40.6484 24.4689C40.8254 24.0959 41.0775 23.7441 41.4369 23.515C42.161 23.0513 42.9442 22.7422 43.7971 22.5876C44.1189 22.529 44.4139 22.3958 44.607 22.1027C44.8162 21.7882 44.8055 21.7403 44.4247 21.7136C43.7595 21.6656 43.1266 21.4898 42.5043 21.2766C41.984 21.0954 41.4744 20.8875 40.938 20.765C40.348 20.6264 39.8009 20.6797 39.3288 21.1007C39.1143 21.2926 38.889 21.4791 38.6583 21.655C38.2936 21.9428 37.8805 21.8628 37.6445 21.4631C37.5748 21.3405 37.5158 21.2126 37.4568 21.0901C36.7916 19.7044 36.9633 18.4307 37.9556 17.2582C38.2292 16.9384 38.5242 16.64 38.8192 16.3415C39.0445 16.1124 39.1464 15.8352 39.1518 15.5261C39.1518 15.3556 39.1357 15.201 38.8836 15.3449C38.3633 15.6327 37.7947 15.8086 37.2154 15.9525C36.7219 16.0697 36.223 16.171 35.7296 16.2829C34.8659 16.4748 34.2276 16.9011 34.0345 17.8338C33.9004 18.468 33.482 18.9583 33.0744 19.4486C32.7686 19.8163 32.4468 19.859 32.0498 19.5925C31.8514 19.4646 31.6583 19.326 31.4759 19.1715C30.5372 18.3774 30.092 17.3914 30.269 16.1497C30.3441 15.6167 30.4889 15.0998 30.6337 14.5882C30.7356 14.2311 30.6927 13.89 30.4782 13.5702C30.4031 13.4583 30.3441 13.4477 30.269 13.5702C29.695 14.4603 28.8797 15.1264 28.0751 15.7926C27.2383 16.4801 26.8038 17.2689 27.2115 18.388C27.4207 18.9583 27.1042 19.4433 26.6107 19.4433C25.2321 19.4379 23.9662 19.0276 23.2635 17.5673C23.0114 17.0397 22.8451 16.4908 22.6896 15.9312C22.5716 15.5101 22.3195 15.217 21.8743 15.1051C21.8313 15.4675 21.7938 15.8193 21.7455 16.1657C21.6168 17.029 21.2735 17.8338 21.0428 18.6758C20.8229 19.4859 20.957 20.1681 21.5953 20.7543C22.0298 21.1593 22.3838 21.639 22.5662 22.2199C22.7271 22.7262 22.5394 23.1845 22.0566 23.3924C20.7317 23.968 19.498 23.872 18.3608 22.9234C17.9532 22.5823 17.6045 22.1879 17.2451 21.8042C17.0037 21.5484 16.7033 21.4258 16.3439 21.4471C16.2045 21.4525 16.1669 21.5111 16.2259 21.6283C16.7087 22.6303 16.816 23.7228 16.993 24.8047C17.0949 25.4282 17.2666 26.0571 17.8673 26.4035C18.2267 26.6114 18.6397 26.7179 19.0206 26.8885C19.4068 27.0644 19.5087 27.4641 19.2888 27.8318C19.2298 27.9331 19.1601 28.029 19.0957 28.1249C18.3286 29.2121 17.3095 29.7824 15.9416 29.6385C15.416 29.5852 14.901 29.4679 14.3968 29.2974C13.9248 29.1322 13.4903 29.1642 13.088 29.5479C13.9945 30.0968 14.665 30.8696 15.3248 31.653C15.5232 31.8928 15.7485 32.1113 15.9738 32.3245C16.4459 32.7828 17.0037 32.9107 17.6474 32.7615C18.2804 32.6123 18.924 32.511 19.5624 32.7349C19.9218 32.8628 20.1417 33.1452 20.1578 33.5236C20.1631 33.7155 20.1631 33.9127 20.1578 34.1045C20.0827 35.3463 19.4765 36.2256 18.3286 36.7319C17.8351 36.9505 17.3202 37.105 16.7838 37.1956C16.4298 37.2542 16.0865 37.3555 15.8612 37.6753C15.7914 37.7712 15.6734 37.8831 15.711 37.9844C15.7593 38.1069 15.9309 38.0696 16.0543 38.091C16.1723 38.1123 16.2903 38.1229 16.4083 38.1389C17.2344 38.2722 18.0068 38.5813 18.7792 38.8957C19.7769 39.3007 20.7049 39.3647 21.5095 38.4907C21.8313 38.1442 22.4965 38.2082 22.7647 38.6559C23.344 39.6365 23.58 40.6544 23.0329 41.7363C22.7057 42.3811 22.2336 42.9088 21.6972 43.3831C21.37 43.6709 21.134 44.0013 21.1501 44.465C21.1555 44.6515 21.2198 44.6835 21.3861 44.6035C21.9869 44.3051 22.6306 44.1132 23.285 43.9746C23.7517 43.8787 24.2183 43.7988 24.685 43.7028C25.5379 43.527 26.1333 43.0793 26.3425 42.1893C26.4391 41.7736 26.6 41.3632 26.8843 41.0381C27.1847 40.697 27.4475 40.2654 28.0268 40.3453C28.3808 40.3986 28.6276 40.6171 28.885 40.8196C29.7218 41.4858 30.2475 42.3225 30.2261 43.431C30.21 44.1292 30.0383 44.8007 29.8238 45.4616C29.7111 45.808 29.7272 46.1544 29.931 46.4741C30.0115 46.5967 30.0812 46.634 30.1885 46.4741C30.7732 45.5575 31.6261 44.9073 32.4521 44.2251C32.8705 43.8787 33.246 43.479 33.3855 42.9194C33.4928 42.4984 33.3157 42.104 33.2406 41.7096C33.1387 41.182 33.3694 40.6917 33.8307 40.6811C35.1181 40.6651 36.2445 41.0115 36.9847 42.1626C37.3709 42.7702 37.5855 43.4417 37.7518 44.1345C37.8591 44.5822 38.1112 44.9073 38.5939 45.0299C38.653 44.5769 38.6851 44.1292 38.7763 43.6869C38.9426 42.8874 39.2805 42.136 39.4737 41.3419C39.656 40.6011 39.5273 39.9563 38.9533 39.434C38.4652 38.9916 38.2131 38.4107 38.0146 37.8032C37.8859 37.4141 38.0307 36.9878 38.3901 36.7959C39.5327 36.1937 40.6966 36.0178 41.8714 36.7266C42.381 37.0357 42.8315 37.4194 43.2231 37.8671C43.5718 38.2668 43.958 38.5599 44.5802 38.432H44.5695Z" fill="white"/>
<defs>
<linearGradient id="paint0_linear_206_2" x1="30" y1="0" x2="30" y2="60" gradientUnits="userSpaceOnUse">
<stop stop-color="#FFB75F"/>
<stop offset="1" stop-color="#DB9137"/>
</linearGradient>
</defs>
</svg>
