<svg width="199" height="165" viewBox="0 0 199 165" fill="none" xmlns="http://www.w3.org/2000/svg">
<path opacity="0.06" d="M137.476 -104.883C140.18 -102.307 142.923 -100.044 145.274 -97.4295C150.251 -91.9663 150.996 -85.6446 148.645 -78.7375C147.116 -74.2499 146.097 -69.6452 146.959 -64.8454C147.743 -60.4358 150.565 -57.47 154.014 -54.8945C154.876 -54.2701 155.268 -54.8165 155.699 -55.4408C157.227 -57.509 158.05 -59.8894 158.677 -62.3479C160.715 -70.5427 166.006 -75.5377 173.961 -77.84C177.724 -78.9327 181.604 -79.7912 185.444 -80.5716C192.302 -81.9374 198.534 -84.63 204.255 -88.5323C205.47 -89.3908 206.724 -90.1713 208.214 -91.1468C210.016 -85.8397 211.897 -80.7667 211.78 -75.3035C211.662 -70.1915 209.076 -66.1721 205.392 -62.8552C202.688 -60.3967 200.376 -57.6261 198.494 -54.5043C196.065 -50.4459 196.025 -46.1534 197.475 -41.7828C197.867 -40.6511 198.259 -40.3389 199.239 -41.2365C205.862 -47.285 213.543 -47.5192 221.617 -44.9827C225.3 -43.812 228.906 -42.4462 232.59 -41.2365C239.017 -39.0902 245.64 -38.2317 252.42 -38.9341C255.79 -39.2853 255.869 -39.2073 254.967 -35.9684C254.301 -33.4709 253.556 -30.9734 252.733 -28.515C250.382 -21.6079 245.483 -17.6666 238.312 -16.3788C235.255 -15.8325 232.355 -14.8179 229.533 -13.6472C223.184 -10.9546 220.558 -5.84262 219.892 0.635193C219.735 2.04002 220.284 2.58635 221.617 2.35221C224.086 1.92296 226.594 1.53274 229.063 0.986412C236.666 -0.730598 243.093 1.53274 248.619 6.72279C251.44 9.37636 254.066 12.186 256.613 15.1127C261.865 21.2003 268.409 25.4928 275.699 28.7318C277.149 29.3951 277.502 29.8634 276.169 31.1122C274.366 32.7511 272.76 34.6242 271.035 36.3412C265.353 42.1166 258.69 43.8336 250.892 41.1801C247.208 39.9313 243.367 39.5411 239.448 39.6582C235.098 39.8143 231.806 41.9215 229.063 45.0824C228.475 45.7458 228.005 46.4091 229.298 46.7994C240.349 50.2334 243.445 59.2867 244.935 69.1596C246.345 78.408 249.089 87.0711 254.615 94.6806C255.79 96.3196 255.398 96.9439 253.635 97.2561C249.716 97.9975 246.071 99.7145 241.956 99.7145C236.234 99.7536 231.649 97.6073 227.965 93.4709C225.261 90.4271 222.361 87.7345 218.873 85.6273C214.014 82.6615 209.076 83.2859 204.099 85.3151C202.923 85.7834 203.119 86.4858 203.55 87.3833C204.569 89.5686 206.097 91.4027 207.822 93.0026C214.641 99.5194 215.816 107.246 213.387 115.987C211.741 121.88 209.311 127.538 208.331 133.626C207.547 138.347 207.665 143.03 208.096 147.713C208.292 149.859 207.743 150.483 205.509 149.82C202.649 148.962 199.709 148.415 196.848 147.44C190.578 145.215 186.777 140.884 185.287 134.484C184.464 130.855 183.289 127.382 181.564 124.104C179.291 119.733 175.647 117.275 170.865 116.338C169.807 116.104 168.945 116.065 169.259 117.626C171.179 126.289 167.652 132.962 161.421 138.62C159.148 140.689 156.796 142.679 154.406 144.63C148.41 149.469 143.824 155.4 140.454 162.307C140.062 163.166 139.553 163.946 139.004 165C134.771 160.942 130.46 157.273 128.07 151.927C126.189 147.674 126.581 143.342 128.07 139.05C129.402 135.069 130.382 131.05 130.225 126.796C130.069 121.138 126.698 117.392 122.427 114.231C121.486 113.529 121.172 114.27 120.741 114.777C118.703 117.197 117.841 120.163 116.94 123.089C114.863 129.723 110.395 134.055 103.89 136.396C100.088 137.762 96.13 138.581 92.1718 139.167C83.9027 140.415 76.3782 143.381 69.4808 148.142C67.0902 149.781 67.051 149.703 66.2672 146.854C65.4442 143.889 64.6212 140.962 64.1509 137.918C63.2887 132.221 64.8171 127.343 68.8537 123.245C71.5186 120.553 74.3403 118.055 76.5742 114.973C80.1404 110.056 81.0026 104.905 78.2985 99.0902C75.3201 101.354 72.4592 103.539 68.7753 104.358C62.5049 105.763 56.6264 104.163 51.0222 101.783C41.9301 97.9195 32.6421 95.5781 22.727 96.3195C21.6689 96.3976 20.7675 96.3195 21.1986 94.8367C22.3351 91.0905 23.2757 87.2662 25 83.7151C27.8609 77.9007 32.838 75.091 39.0301 74.1545C42.4004 73.6472 45.614 72.5546 48.71 71.1107C54.1966 68.5742 56.5088 63.8524 57.4102 58.1941C57.6062 56.9453 56.7832 56.9063 56.0386 56.7503C53.8831 56.36 51.7668 56.6722 49.6898 57.2575C40.2058 59.9111 32.4461 57.0234 26.019 49.9602C24.5297 48.3213 23.0013 46.7213 21.6297 45.0043C16.2607 38.2143 9.79428 32.8292 1.91708 29.161C-0.551894 28.0293 -0.512695 27.9123 1.32924 25.9611C3.32793 23.8539 5.40501 21.7857 7.63884 19.9126C12.9687 15.542 18.8864 14.5274 25.3919 16.7907C29.5853 18.2346 33.8962 19.1711 38.403 18.8589C42.9491 18.5468 46.3194 16.1663 49.1019 12.4982C48.1222 12.0689 47.3384 11.7567 46.5546 11.4055C38.7557 8.24468 35.3854 1.84492 33.857 -5.84261C33.0732 -9.94003 32.5637 -14.0765 31.7799 -18.1349C30.6434 -24.2224 28.2528 -29.8418 24.9217 -35.0708C24.2554 -36.1245 23.6284 -37.2171 22.8838 -38.5049C28.9974 -40.1048 34.8759 -42.0169 41.1855 -40.6511C45.8883 -39.5975 48.7884 -36.3196 51.8452 -33.0026C56.3521 -28.1247 61.1725 -23.481 68.7361 -24.4956C70.4213 -24.7297 72.7727 -24.6517 73.3214 -26.2126C73.7525 -27.5004 72.0673 -29.0613 71.0092 -30.31C68.1483 -33.666 64.7388 -36.5927 63.1712 -40.9633C61.2116 -46.5046 62.0346 -51.8507 63.5239 -57.2749C64.8171 -61.9967 67.0118 -66.4453 67.874 -71.2841C68.8145 -76.2791 69.0497 -81.235 68.501 -86.308C68.0699 -90.2493 68.1875 -90.2493 72.0281 -89.4298C74.889 -88.8055 77.7107 -88.103 80.454 -87.0885C86.1365 -84.9422 89.6636 -80.8448 91.1528 -75.0694C92.0934 -71.3232 93.1907 -67.655 95.0327 -64.221C97.3449 -59.9285 100.95 -57.431 105.732 -56.4554C107.299 -56.1432 107.534 -56.6896 107.26 -57.9773C105.3 -66.9916 109.455 -73.6255 115.725 -79.44C119.566 -82.952 123.798 -86.0348 127.364 -89.8201C131.558 -94.3077 134.379 -99.6539 137.162 -105L137.476 -104.883ZM243.249 91.4026C240.349 85.8614 238.782 80.203 237.724 74.3886C237.097 70.9936 236.548 67.5986 235.647 64.2427C234.275 59.1697 231.375 55.5796 226.045 54.2528C223.654 53.6674 221.499 52.4967 219.344 51.287C217.462 50.2334 217.07 48.7505 218.011 46.9164C219.187 44.6921 220.676 42.6239 222.244 40.6728C226.75 35.0535 232.511 31.6194 239.879 31.4243C244.935 31.3073 249.912 32.2828 254.771 33.7267C257.397 34.5072 260.062 34.5071 262.492 32.8682C263.746 32.0487 263.667 31.5414 262.453 30.7609C257.867 27.8732 253.988 24.2051 250.382 20.2247C247.835 17.4151 245.405 14.5274 242.544 12.0299C239.017 9.02515 235.137 7.62032 230.513 8.94711C226.202 10.1958 221.813 10.2739 217.384 9.45439C213.465 8.71295 211.231 6.21549 211.388 2.23515C211.584 -2.33054 212.642 -6.74014 214.602 -10.8375C215.895 -13.5692 217.737 -16.1447 220.362 -17.8227C225.653 -21.2177 231.375 -23.481 237.606 -24.6127C239.957 -25.0419 242.113 -26.0175 243.524 -28.1638C245.052 -30.4661 244.974 -30.8173 242.191 -31.0124C237.332 -31.3636 232.707 -32.6514 228.161 -34.2123C224.36 -35.5391 220.637 -37.061 216.718 -37.9585C212.407 -38.9731 208.41 -38.5829 204.961 -35.5001C203.393 -34.0953 201.747 -32.7294 200.062 -31.4417C197.397 -29.3344 194.379 -29.9198 192.655 -32.8465C192.146 -33.744 191.715 -34.6806 191.283 -35.5781C186.424 -45.7241 187.678 -55.0506 194.928 -63.6356C196.927 -65.977 199.082 -68.1623 201.238 -70.3476C202.884 -72.0256 203.628 -74.0548 203.668 -76.3181C203.668 -77.5669 203.55 -78.6985 201.708 -77.6449C197.907 -75.5377 193.752 -74.2499 189.52 -73.1963C185.914 -72.3378 182.27 -71.5963 178.664 -70.7768C172.355 -69.372 167.691 -66.2502 166.28 -59.4212C165.3 -54.7774 162.244 -51.1873 159.265 -47.5972C157.031 -44.9046 154.68 -44.5924 151.78 -46.5436C150.33 -47.4801 148.919 -48.4947 147.587 -49.6264C140.728 -55.4408 137.475 -62.6601 138.769 -71.7524C139.317 -75.6547 140.376 -79.4399 141.434 -83.1862C142.178 -85.8007 141.865 -88.2982 140.297 -90.6395C139.749 -91.459 139.317 -91.5371 138.769 -90.6395C134.575 -84.1227 128.619 -79.2448 122.74 -74.367C116.626 -69.333 113.452 -63.5576 116.43 -55.3628C117.959 -51.1873 115.647 -47.6362 112.041 -47.6362C101.969 -47.6753 92.7205 -50.68 87.5866 -61.3723C85.7446 -65.2356 84.5297 -69.255 83.3932 -73.3524C82.531 -76.4352 80.6891 -78.5815 77.4363 -79.4009C77.1228 -76.7474 76.8485 -74.1718 76.4958 -71.6354C75.5552 -65.3136 73.047 -59.4212 71.3619 -53.2555C69.7551 -47.324 70.7348 -42.3291 75.3984 -38.0366C78.5728 -35.0708 81.1594 -31.5588 82.4919 -27.3052C83.6675 -23.5981 82.2959 -20.2421 78.7688 -18.7202C69.0888 -14.5057 60.0751 -15.2081 51.7668 -22.1542C48.7884 -24.6517 46.241 -27.5394 43.6153 -30.3491C41.8518 -32.2222 39.6571 -33.1197 37.0314 -32.9636C36.0124 -32.9246 35.7381 -32.4953 36.1692 -31.6368C39.6963 -24.3005 40.4801 -16.3008 41.7734 -8.37911C42.518 -3.81342 43.7721 0.79129 48.1614 3.32778C50.7871 4.84968 53.8047 5.63016 56.5872 6.87889C59.4089 8.16665 60.1535 11.0934 58.5467 13.7859C58.1156 14.5274 57.6062 15.2298 57.1359 15.9322C51.5317 23.8929 44.0856 28.0684 34.0921 27.0147C30.2515 26.6245 26.4893 25.766 22.8054 24.5173C19.3567 23.3076 16.1823 23.5417 13.243 26.3513C19.8661 30.3707 24.7649 36.029 29.5853 41.7654C31.0353 43.5215 32.6813 45.1214 34.3273 46.6823C37.776 50.0383 41.8518 50.9748 46.5546 49.8822C51.179 48.7896 55.8818 48.0481 60.5454 49.6871C63.1712 50.6236 64.778 52.6919 64.8955 55.4625C64.9347 56.8673 64.9347 58.3112 64.8955 59.716C64.3469 68.8083 59.9184 75.2471 51.5317 78.9543C47.9262 80.5542 44.164 81.6859 40.245 82.3493C37.6584 82.7786 35.1503 83.52 33.5043 85.8614C32.9948 86.5638 32.1326 87.3833 32.407 88.1247C32.7597 89.0223 34.0137 88.7491 34.9151 88.9052C35.7773 89.0613 36.6395 89.1393 37.5017 89.2564C43.5369 90.2319 49.1803 92.4953 54.8237 94.7977C62.113 97.7634 68.8929 98.2317 74.7714 91.8319C77.1228 89.2954 81.9824 89.7637 83.9419 93.0416C88.1744 100.222 89.8988 107.675 85.9014 115.597C83.5108 120.319 80.0621 124.182 76.1431 127.655C73.7525 129.762 72.0281 132.182 72.1457 135.577C72.1849 136.942 72.6551 137.177 73.87 136.591C78.2593 134.406 82.9621 133.001 87.7433 131.987C91.1529 131.284 94.5624 130.699 97.9719 129.996C104.203 128.709 108.553 125.431 110.082 118.914C110.787 115.87 111.963 112.865 114.04 110.485C116.234 107.987 118.155 104.827 122.387 105.412C124.974 105.802 126.777 107.402 128.658 108.885C134.771 113.763 138.612 119.889 138.455 128.006C138.338 133.118 137.084 138.035 135.516 142.874C134.693 145.41 134.811 147.947 136.3 150.288C136.888 151.186 137.397 151.459 138.181 150.288C142.453 143.576 148.684 138.816 154.719 133.821C157.776 131.284 160.519 128.357 161.538 124.26C162.322 121.177 161.029 118.289 160.48 115.402C159.735 111.539 161.421 107.948 164.791 107.87C174.197 107.753 182.426 110.29 187.835 118.719C190.656 123.167 192.224 128.084 193.439 133.157C194.223 136.435 196.065 138.816 199.592 139.713C200.023 136.396 200.258 133.118 200.924 129.879C202.139 124.026 204.608 118.524 206.019 112.709C207.351 107.285 206.411 102.563 202.217 98.739C198.651 95.5 196.809 91.2466 195.359 86.7979C194.419 83.9493 195.477 80.8274 198.103 79.4226C206.45 75.013 214.954 73.7253 223.537 78.9153C227.26 81.1786 230.552 83.9883 233.413 87.2662C235.96 90.1929 238.782 92.3392 243.328 91.4026H243.249Z" fill="white"/>
</svg>
